<?xml version="1.0" standalone="no"?>
<!DOCTYPE svg PUBLIC "-//W3C//DTD SVG 20010904//EN"
 "http://www.w3.org/TR/2001/REC-SVG-20010904/DTD/svg10.dtd">
<svg version="1.0" xmlns="http://www.w3.org/2000/svg"
 width="500.000000pt" height="500.000000pt" viewBox="0 0 500.000000 500.000000"
 preserveAspectRatio="xMidYMid meet">
<metadata>
Created by potrace 1.14, written by Peter Selinger 2001-2017
</metadata>
<g transform="translate(0.000000,500.000000) scale(0.100000,-0.100000)"
fill="#000000" stroke="none">
<path d="M2993 3612 c-24 -2 -43 -7 -43 -13 -1 -5 -1 -65 -1 -134 0 -217 1
-226 11 -220 13 8 12 29 14 -386 l1 -355 38 -33 37 -33 0 516 c0 284 2 516 4
516 2 0 33 -13 68 -30 34 -16 68 -30 74 -30 6 0 10 36 10 100 0 83 -3 100 -16
101 -55 3 -162 4 -197 1z"/>
<path d="M2758 3423 l-108 -66 0 -291 0 -292 53 -45 c28 -25 78 -67 110 -93
l57 -46 0 450 c0 247 -1 450 -2 450 -2 -1 -51 -30 -110 -67z m-8 -163 c0 -27
-3 -30 -30 -30 -27 0 -30 3 -30 30 0 27 3 30 30 30 27 0 30 -3 30 -30z m-2
-95 c-3 -29 -7 -31 -48 -26 -14 2 -12 48 3 54 33 12 48 3 45 -28z m2 -95 c0
-27 -3 -30 -30 -30 -27 0 -30 3 -30 30 0 27 3 30 30 30 27 0 30 -3 30 -30z m0
-90 c0 -27 -3 -30 -30 -30 -27 0 -30 3 -30 30 0 27 3 30 30 30 27 0 30 -3 30
-30z m-2 -98 c3 -30 1 -32 -27 -32 -27 0 -31 3 -31 28 0 35 4 39 32 37 18 -1
24 -9 26 -33z m2 -92 c0 -27 -3 -30 -30 -30 -27 0 -30 3 -30 30 0 27 3 30 30
30 27 0 30 -3 30 -30z"/>
<path d="M3079 3422 c-1 -9 -1 -936 0 -977 1 -27 17 -44 126 -133 68 -56 130
-105 137 -107 10 -4 13 80 12 431 -2 369 0 435 12 430 12 -4 14 16 14 114 0
66 -2 120 -3 120 -2 0 -70 29 -150 64 -81 36 -147 62 -148 58z m104 -111 c12
-1 17 -9 17 -31 0 -28 -3 -30 -35 -30 -33 0 -35 2 -35 34 0 27 4 34 18 31 9
-2 25 -4 35 -4z m15 -137 c3 -33 1 -34 -33 -34 -32 0 -35 3 -35 28 0 35 3 39
38 40 25 0 28 -3 30 -34z m-3 -109 c0 -26 -4 -30 -32 -32 -32 -3 -33 -1 -33
33 0 34 1 35 33 32 28 -3 32 -6 32 -33z m-3 -74 c4 -1 7 -16 5 -33 -2 -29 -6
-33 -32 -33 -24 0 -31 5 -33 23 -5 35 4 49 30 46 12 -1 26 -3 30 -3z m5 -138
c3 -31 1 -33 -32 -33 -33 0 -35 2 -35 36 0 34 1 35 32 32 29 -3 33 -7 35 -35z
m1 -106 c0 -30 -3 -33 -34 -35 -33 -3 -34 -1 -34 33 0 33 2 35 34 35 32 0 34
-2 34 -33z m-16 -76 c14 -1 17 -9 15 -33 -2 -29 -6 -33 -32 -33 -27 0 -30 3
-33 37 -3 31 0 36 15 33 10 -2 26 -4 35 -4z"/>
<path d="M2914 3186 c-18 -14 -19 -29 -20 -313 0 -181 4 -303 10 -311 5 -7 18
-18 28 -23 17 -9 18 4 18 326 0 184 -4 335 -8 335 -5 0 -17 -6 -28 -14z"/>
<path d="M3380 2592 l0 -430 23 -15 c12 -9 36 -28 52 -42 37 -33 90 -75 96
-75 9 0 3 860 -6 868 -15 14 -138 107 -152 116 -10 6 -13 -81 -13 -422z"/>
<path d="M2639 2742 c-2 -4 -101 -89 -219 -187 -118 -98 -217 -182 -221 -187
-3 -4 -88 61 -190 146 -105 88 -189 151 -196 147 -9 -5 -258 -209 -418 -343
-11 -9 -56 -46 -100 -83 -116 -97 -113 -95 -193 -159 -40 -32 -70 -61 -67 -64
4 -5 27 -5 176 -3 45 1 46 2 43 30 -3 24 6 35 63 82 62 50 329 271 432 357 63
52 79 63 83 54 2 -4 41 -39 88 -77 47 -39 90 -74 96 -80 6 -5 92 -77 192 -160
156 -128 182 -153 182 -177 0 -21 5 -28 20 -29 84 -2 192 -1 196 3 2 3 -55 54
-128 113 -73 60 -150 123 -170 141 l-36 32 106 88 c59 48 112 92 117 98 6 6
42 37 82 69 l72 58 143 -118 c79 -65 216 -179 304 -252 l162 -133 -3 -49 c-1
-39 2 -49 14 -50 54 -2 254 0 256 3 2 2 -37 37 -87 78 -50 41 -96 80 -102 85
-6 6 -36 30 -66 55 -30 25 -66 55 -80 66 -14 12 -68 57 -120 100 -109 90 -387
320 -411 341 -10 8 -19 10 -20 5z"/>
<path d="M2395 2665 c-110 -34 -209 -61 -220 -59 -11 2 -42 8 -70 14 -27 5
-63 12 -80 15 -16 3 -58 10 -93 16 -35 6 -65 10 -67 8 -5 -6 313 -269 325
-269 5 0 92 68 192 151 181 150 227 190 218 188 -3 0 -95 -29 -205 -64z"/>
<path d="M2483 2445 c-90 -74 -163 -139 -163 -144 0 -30 42 -4 174 105 82 68
152 124 155 124 5 0 61 -45 220 -178 24 -20 49 -42 55 -47 6 -6 54 -45 106
-87 52 -42 104 -85 115 -95 13 -13 28 -17 44 -13 21 5 2 23 -155 153 -99 82
-188 156 -199 165 -142 118 -183 152 -186 152 -2 0 -77 -61 -166 -135z"/>
<path d="M1785 2482 c-17 -15 -68 -59 -115 -97 -47 -39 -139 -116 -205 -170
-65 -55 -133 -110 -149 -122 l-30 -23 31 0 c26 0 72 34 263 193 128 105 236
192 241 192 7 0 419 -338 455 -372 7 -7 27 -13 44 -13 29 0 18 11 -122 126
-84 69 -164 136 -178 148 -78 67 -198 166 -201 166 -2 0 -18 -12 -34 -28z"/>
<path d="M2581 2352 c-6 -2 -11 -17 -11 -33 0 -26 3 -29 35 -29 31 0 34 3 31
23 -3 12 -5 27 -5 32 -1 11 -28 14 -50 7z"/>
<path d="M2680 2351 c-25 -6 -32 -33 -17 -58 10 -16 55 -3 60 18 7 27 -14 47
-43 40z"/>
<path d="M2575 2262 c-3 -3 -5 -18 -5 -34 0 -27 3 -29 32 -26 27 3 32 7 33 31
1 15 -1 28 -4 28 -22 5 -51 5 -56 1z"/>
<path d="M2658 2245 c-3 -11 -3 -26 0 -33 5 -16 62 -16 63 1 0 6 2 21 3 32 2
17 -3 21 -30 21 -25 0 -33 -5 -36 -21z"/>
<path d="M1717 2222 c-2 -4 -3 -25 -2 -47 l1 -40 44 0 45 0 0 45 -1 45 -42 2
c-23 1 -43 -2 -45 -5z"/>
<path d="M1839 2223 c0 -2 -1 -16 -1 -33 0 -57 0 -57 45 -56 l42 2 0 44 0 45
-42 1 c-24 0 -43 -1 -44 -3z"/>
<path d="M1717 2102 c-2 -4 -3 -25 -2 -47 l1 -40 45 -2 45 -2 1 45 c1 24 -2
44 -6 45 -35 6 -81 6 -84 1z"/>
<path d="M1838 2098 c-2 -5 -2 -26 0 -46 4 -37 5 -38 45 -37 l42 0 0 45 0 45
-42 1 c-24 0 -44 -4 -45 -8z"/>
</g>
</svg>
