<?xml version="1.0" standalone="no"?>
<!DOCTYPE svg PUBLIC "-//W3C//DTD SVG 20010904//EN"
 "http://www.w3.org/TR/2001/REC-SVG-20010904/DTD/svg10.dtd">
<svg version="1.0" xmlns="http://www.w3.org/2000/svg"
 width="1563.000000pt" height="1563.000000pt" viewBox="0 0 1563.000000 1563.000000"
 preserveAspectRatio="xMidYMid meet">
<metadata>
Created by potrace 1.14, written by Peter Selinger 2001-2017
</metadata>
<g transform="translate(0.000000,1563.000000) scale(0.100000,-0.100000)"
fill="#000000" stroke="none">
<path d="M5238 10695 c-2 -2 -28 -6 -58 -9 -30 -3 -80 -8 -110 -12 -62 -6
-320 -61 -357 -75 -13 -5 -36 -11 -52 -14 -38 -6 -225 -77 -324 -121 -564
-255 -1035 -709 -1306 -1259 -271 -550 -342 -1129 -215 -1755 49 -242 189
-600 309 -791 l27 -43 200 205 c110 112 449 456 753 764 303 308 684 694 845
858 161 163 297 297 302 297 8 0 177 -124 623 -458 l219 -165 171 175 c176
182 616 635 770 793 48 50 187 193 308 318 122 126 223 232 225 236 1 4 -6 16
-15 27 -10 10 -36 42 -58 69 -41 52 -278 292 -330 335 -228 186 -487 341 -738
442 -79 31 -247 87 -247 82 0 -3 -8 -1 -17 5 -35 18 -264 65 -378 77 -33 3
-79 10 -102 14 -42 7 -438 12 -445 5z"/>
<path d="M7940 9779 c-74 -76 -186 -192 -249 -257 -62 -64 -247 -254 -410
-421 -163 -167 -327 -337 -366 -376 -38 -40 -194 -200 -346 -356 -152 -156
-313 -322 -358 -368 l-81 -83 -182 135 c-101 75 -289 214 -418 311 -129 97
-238 176 -241 176 -6 0 -222 -216 -536 -536 -91 -93 -412 -419 -713 -724 -301
-305 -619 -628 -706 -716 -88 -89 -386 -392 -664 -673 -553 -561 -860 -874
-906 -923 l-29 -32 50 36 c28 19 156 106 285 193 129 87 296 200 370 250 74
50 294 199 489 329 l353 238 81 -78 c44 -44 87 -86 94 -94 11 -13 16 -11 39
15 33 37 173 193 194 215 8 9 33 36 55 61 37 41 145 162 224 249 19 22 29 28
24 15 -4 -10 -89 -183 -189 -383 -100 -200 -185 -371 -188 -379 -6 -14 112 90
250 222 28 28 96 91 150 142 55 50 120 111 145 135 25 23 100 93 165 153 65
61 156 146 202 190 46 44 88 80 92 80 10 0 69 -53 305 -275 39 -36 131 -121
205 -190 74 -69 162 -150 195 -181 175 -165 200 -187 207 -183 10 6 227 286
429 554 35 47 69 90 74 96 6 6 70 91 144 188 74 98 139 180 144 183 4 3 -21
-51 -56 -119 -35 -67 -109 -211 -164 -318 l-100 -195 -1 -227 c0 -197 5 -253
20 -220 2 4 39 38 83 76 76 65 141 123 213 190 l33 31 42 -46 c23 -25 83 -90
134 -145 50 -54 113 -123 140 -152 l48 -53 75 107 c41 59 98 139 125 179 28
40 174 249 325 465 l275 392 3 -606 2 -606 27 17 c15 10 109 74 208 142 99 68
236 162 305 209 69 47 197 135 285 196 88 60 201 137 250 171 l90 62 35 -26
c19 -14 238 -179 485 -366 247 -187 466 -353 486 -368 l38 -28 1 213 c0 116 2
213 4 215 2 2 23 -1 47 -7 24 -6 54 -13 67 -16 56 -12 361 -85 391 -94 19 -5
37 -8 39 -5 2 2 -31 25 -73 52 -195 123 -388 246 -483 308 -62 41 -198 127
-326 208 -10 7 -73 47 -140 89 -67 42 -173 109 -236 149 -63 40 -166 106 -227
146 -62 40 -120 73 -128 73 -8 0 -34 -12 -58 -27 -88 -57 -381 -232 -384 -230
-2 3 79 213 253 652 41 105 79 202 83 216 8 24 4 28 -83 72 -272 140 -338 175
-349 186 -9 9 -12 163 -12 641 0 347 2 630 5 630 3 0 52 -44 110 -97 58 -53
143 -130 189 -172 47 -42 114 -103 150 -137 36 -33 85 -78 109 -100 24 -21 58
-52 76 -69 18 -16 75 -68 126 -115 51 -47 110 -101 131 -120 33 -31 166 -152
209 -190 9 -8 61 -55 115 -105 54 -49 103 -94 109 -100 42 -37 232 -211 236
-215 4 -4 323 -295 479 -436 l23 -22 217 151 c119 83 236 165 261 182 189 132
277 193 290 200 8 5 -7 -17 -35 -50 -27 -33 -58 -68 -67 -80 -28 -34 -289
-349 -306 -370 -10 -11 -51 -60 -92 -110 -88 -105 -73 -87 -240 -290 -73 -88
-142 -171 -154 -185 -11 -14 -41 -50 -66 -80 -25 -30 -47 -57 -50 -60 -3 -3
-24 -27 -45 -55 -47 -58 -57 -64 190 115 103 74 199 144 215 155 96 68 196
140 205 147 18 16 670 488 685 497 11 6 111 -69 395 -296 209 -167 393 -313
409 -326 16 -12 52 -40 80 -63 28 -23 161 -129 296 -236 135 -107 403 -319
595 -473 193 -153 433 -344 534 -424 173 -138 291 -232 336 -269 74 -61 62
-43 -55 82 -82 87 -81 85 -230 246 -69 73 -136 146 -150 160 -14 14 -79 84
-145 155 -66 71 -152 163 -191 205 -40 41 -86 91 -104 110 -18 19 -57 62 -89
95 -31 33 -121 130 -201 215 -79 85 -172 184 -206 220 -35 36 -72 76 -84 90
-12 13 -53 58 -92 100 -133 140 -223 236 -288 306 -151 162 -330 354 -402 430
-43 44 -86 90 -96 102 -19 22 -211 227 -332 355 l-65 69 -160 -50 c-88 -28
-268 -85 -399 -126 -132 -42 -242 -76 -245 -76 -3 0 -31 24 -61 52 -30 28
-115 108 -189 177 -74 69 -171 160 -215 201 -44 41 -116 109 -160 150 -44 41
-114 107 -156 146 -69 65 -126 118 -314 294 -92 86 -92 86 -242 226 -71 67
-145 136 -164 154 -19 18 -87 81 -150 140 -63 59 -131 122 -150 140 -19 18
-93 87 -164 154 -71 66 -139 130 -151 141 -12 11 -41 39 -66 62 l-44 42 -135
-140z"/>
<path d="M10879 6550 l-24 -5 0 -147 0 -148 151 0 152 0 0 138 c0 75 -2 144
-4 152 -3 12 -26 15 -127 15 -68 0 -134 -2 -148 -5z"/>
<path d="M11277 6552 c-9 -2 -17 -11 -18 -20 -1 -20 -1 -252 0 -269 1 -10 38
-13 151 -13 l151 0 -3 152 -3 151 -131 1 c-72 1 -138 0 -147 -2z"/>
<path d="M10859 6143 c-1 -5 -2 -72 -3 -150 -1 -136 0 -143 19 -144 24 -1 231
-1 262 0 21 1 21 4 20 149 l-2 147 -147 3 c-82 1 -149 -1 -149 -5z"/>
<path d="M11257 6023 c1 -71 2 -139 2 -153 l1 -25 147 1 148 1 3 152 3 151
-153 0 -153 0 2 -127z"/>
<path d="M4393 5925 c-2 -84 -1 -95 15 -96 29 -1 125 -1 154 0 l28 1 -1 95 -1
95 -96 0 -97 0 -2 -95z"/>
<path d="M4659 6013 c-1 -5 -2 -47 -3 -95 -1 -82 0 -88 19 -89 28 -1 136 -1
158 0 15 1 17 13 17 96 l0 95 -95 0 c-52 0 -96 -3 -96 -7z"/>
<path d="M8482 5865 c-3 -5 -6 -49 -7 -97 l-1 -88 31 -1 c16 0 60 -1 97 -2
l68 -2 0 98 c0 53 -3 97 -7 98 -53 5 -176 2 -181 -6z"/>
<path d="M8738 5792 c-4 -119 -7 -115 96 -116 59 -1 90 3 93 11 5 12 6 76 4
148 l-1 40 -94 0 -95 0 -3 -83z"/>
<path d="M4397 5753 c-3 -5 -5 -47 -5 -95 l1 -88 26 -1 c42 -1 124 -1 148 0
20 1 21 6 22 96 l1 95 -94 0 c-52 0 -97 -3 -99 -7z"/>
<path d="M4655 5665 c0 -109 -15 -96 120 -98 l70 0 3 96 3 97 -98 0 -98 0 0
-95z"/>
<path d="M8492 5609 c-14 -5 -17 -21 -17 -97 0 -81 2 -92 18 -93 22 -1 63 -1
127 0 l51 1 -3 97 -3 97 -78 0 c-43 1 -85 -2 -95 -5z"/>
<path d="M8744 5608 c-8 -12 -7 -178 0 -185 7 -8 176 -7 184 1 6 7 9 186 2
187 -36 4 -183 2 -186 -3z"/>
</g>
</svg>
